<?xml version="1.0" encoding="utf-8"?>
<svg version="1.1" id="Layer_2" xmlns="http://www.w3.org/2000/svg" xmlns:xlink="http://www.w3.org/1999/xlink" x="0px" y="0px" viewBox="0 0 2880 1800" style="enable-background:new 0 0 2880 1800;" xml:space="preserve">
<style type="text/css">
	.st0{fill:#EFEFF4;}
</style>
<g>
	<path class="st0" d="M177,269.5c-26.7,0-48.5-21.8-48.5-48.5s21.8-48.5,48.5-48.5s48.5,21.8,48.5,48.5S203.8,269.5,177,269.5z
		 M177,181.3c-21.9,0-39.7,17.8-39.7,39.7s17.8,39.7,39.7,39.7s39.7-17.8,39.7-39.7S198.9,181.3,177,181.3z"/>
</g>
<g>
	<path class="st0" d="M274,463.5c-26.7,0-48.5-21.8-48.5-48.5s21.8-48.5,48.5-48.5c26.7,0,48.5,21.8,48.5,48.5
		S300.8,463.5,274,463.5z M274,375.3c-21.9,0-39.7,17.8-39.7,39.7s17.8,39.7,39.7,39.7c21.9,0,39.7-17.8,39.7-39.7
		S295.9,375.3,274,375.3z"/>
</g>
<g>
	<path class="st0" d="M468,463.5c-26.7,0-48.5-21.8-48.5-48.5s21.8-48.5,48.5-48.5c26.7,0,48.5,21.8,48.5,48.5
		S494.8,463.5,468,463.5z M468,375.3c-21.9,0-39.7,17.8-39.7,39.7s17.8,39.7,39.7,39.7c21.9,0,39.7-17.8,39.7-39.7
		S489.9,375.3,468,375.3z"/>
</g>
<g>
	<path class="st0" d="M662,463.5c-26.7,0-48.5-21.8-48.5-48.5s21.8-48.5,48.5-48.5s48.5,21.8,48.5,48.5S688.8,463.5,662,463.5z
		 M662,375.3c-21.9,0-39.7,17.8-39.7,39.7s17.8,39.7,39.7,39.7s39.7-17.8,39.7-39.7S683.9,375.3,662,375.3z"/>
</g>
<g>
	<path class="st0" d="M856,463.5c-26.7,0-48.5-21.8-48.5-48.5s21.8-48.5,48.5-48.5s48.5,21.8,48.5,48.5S882.8,463.5,856,463.5z
		 M856,375.3c-21.9,0-39.7,17.8-39.7,39.7s17.8,39.7,39.7,39.7s39.7-17.8,39.7-39.7S877.9,375.3,856,375.3z"/>
</g>
<g>
	<path class="st0" d="M1050,463.5c-26.7,0-48.5-21.8-48.5-48.5s21.8-48.5,48.5-48.5c26.7,0,48.5,21.8,48.5,48.5
		S1076.8,463.5,1050,463.5z M1050,375.3c-21.9,0-39.7,17.8-39.7,39.7s17.8,39.7,39.7,39.7c21.9,0,39.7-17.8,39.7-39.7
		S1071.9,375.3,1050,375.3z"/>
</g>
<g>
	<path class="st0" d="M1244,463.5c-26.7,0-48.5-21.8-48.5-48.5s21.8-48.5,48.5-48.5s48.5,21.8,48.5,48.5S1270.8,463.5,1244,463.5z
		 M1244,375.3c-21.9,0-39.7,17.8-39.7,39.7s17.8,39.7,39.7,39.7c21.9,0,39.7-17.8,39.7-39.7S1265.9,375.3,1244,375.3z"/>
</g>
<g>
	<path class="st0" d="M1438,463.5c-26.7,0-48.5-21.8-48.5-48.5s21.8-48.5,48.5-48.5s48.5,21.8,48.5,48.5S1464.8,463.5,1438,463.5z
		 M1438,375.3c-21.9,0-39.7,17.8-39.7,39.7s17.8,39.7,39.7,39.7c21.9,0,39.7-17.8,39.7-39.7S1459.9,375.3,1438,375.3z"/>
</g>
<g>
	<path class="st0" d="M1632,463.5c-26.7,0-48.5-21.8-48.5-48.5s21.8-48.5,48.5-48.5s48.5,21.8,48.5,48.5S1658.8,463.5,1632,463.5z
		 M1632,375.3c-21.9,0-39.7,17.8-39.7,39.7s17.8,39.7,39.7,39.7c21.9,0,39.7-17.8,39.7-39.7S1653.9,375.3,1632,375.3z"/>
</g>
<g>
	<path class="st0" d="M1826,463.5c-26.7,0-48.5-21.8-48.5-48.5s21.8-48.5,48.5-48.5s48.5,21.8,48.5,48.5S1852.8,463.5,1826,463.5z
		 M1826,375.3c-21.9,0-39.7,17.8-39.7,39.7s17.8,39.7,39.7,39.7c21.9,0,39.7-17.8,39.7-39.7S1847.9,375.3,1826,375.3z"/>
</g>
<g>
	<path class="st0" d="M2020,463.5c-26.7,0-48.5-21.8-48.5-48.5s21.8-48.5,48.5-48.5s48.5,21.8,48.5,48.5S2046.8,463.5,2020,463.5z
		 M2020,375.3c-21.9,0-39.7,17.8-39.7,39.7s17.8,39.7,39.7,39.7c21.9,0,39.7-17.8,39.7-39.7S2041.9,375.3,2020,375.3z"/>
</g>
<g>
	<path class="st0" d="M2214,463.5c-26.7,0-48.5-21.8-48.5-48.5s21.8-48.5,48.5-48.5c26.7,0,48.5,21.8,48.5,48.5
		S2240.8,463.5,2214,463.5z M2214,375.3c-21.9,0-39.7,17.8-39.7,39.7s17.8,39.7,39.7,39.7c21.9,0,39.7-17.8,39.7-39.7
		S2235.9,375.3,2214,375.3z"/>
</g>
<g>
	<path class="st0" d="M2408,463.5c-26.7,0-48.5-21.8-48.5-48.5s21.8-48.5,48.5-48.5c26.7,0,48.5,21.8,48.5,48.5
		S2434.8,463.5,2408,463.5z M2408,375.3c-21.9,0-39.7,17.8-39.7,39.7s17.8,39.7,39.7,39.7c21.9,0,39.7-17.8,39.7-39.7
		S2429.9,375.3,2408,375.3z"/>
</g>
<g>
	<path class="st0" d="M2602,463.5c-26.7,0-48.5-21.8-48.5-48.5s21.8-48.5,48.5-48.5c26.7,0,48.5,21.8,48.5,48.5
		S2628.8,463.5,2602,463.5z M2602,375.3c-21.9,0-39.7,17.8-39.7,39.7s17.8,39.7,39.7,39.7c21.9,0,39.7-17.8,39.7-39.7
		S2623.9,375.3,2602,375.3z"/>
</g>
<g>
	<path class="st0" d="M371.3,269.5c-26.7,0-48.5-21.8-48.5-48.5s21.8-48.5,48.5-48.5c26.7,0,48.5,21.8,48.5,48.5
		S398,269.5,371.3,269.5z M371.3,181.3c-21.9,0-39.7,17.8-39.7,39.7s17.8,39.7,39.7,39.7c21.9,0,39.7-17.8,39.7-39.7
		S393.1,181.3,371.3,181.3z"/>
</g>
<g>
	<path class="st0" d="M565.5,269.5c-26.7,0-48.5-21.8-48.5-48.5s21.8-48.5,48.5-48.5S614,194.3,614,221S592.2,269.5,565.5,269.5z
		 M565.5,181.3c-21.9,0-39.7,17.8-39.7,39.7s17.8,39.7,39.7,39.7s39.7-17.8,39.7-39.7S587.4,181.3,565.5,181.3z"/>
</g>
<g>
	<path class="st0" d="M759.7,269.5c-26.7,0-48.5-21.8-48.5-48.5s21.8-48.5,48.5-48.5s48.5,21.8,48.5,48.5S786.5,269.5,759.7,269.5z
		 M759.7,181.3c-21.9,0-39.7,17.8-39.7,39.7s17.8,39.7,39.7,39.7s39.7-17.8,39.7-39.7S781.6,181.3,759.7,181.3z"/>
</g>
<g>
	<path class="st0" d="M953.9,269.5c-26.7,0-48.5-21.8-48.5-48.5s21.8-48.5,48.5-48.5s48.5,21.8,48.5,48.5S980.7,269.5,953.9,269.5z
		 M953.9,181.3c-21.9,0-39.7,17.8-39.7,39.7s17.8,39.7,39.7,39.7s39.7-17.8,39.7-39.7S975.8,181.3,953.9,181.3z"/>
</g>
<g>
	<path class="st0" d="M1148.2,269.5c-26.7,0-48.5-21.8-48.5-48.5s21.8-48.5,48.5-48.5s48.5,21.8,48.5,48.5
		S1174.9,269.5,1148.2,269.5z M1148.2,181.3c-21.9,0-39.7,17.8-39.7,39.7s17.8,39.7,39.7,39.7c21.9,0,39.7-17.8,39.7-39.7
		S1170,181.3,1148.2,181.3z"/>
</g>
<g>
	<path class="st0" d="M1342.4,269.5c-26.7,0-48.5-21.8-48.5-48.5s21.8-48.5,48.5-48.5s48.5,21.8,48.5,48.5
		S1369.1,269.5,1342.4,269.5z M1342.4,181.3c-21.9,0-39.7,17.8-39.7,39.7s17.8,39.7,39.7,39.7c21.9,0,39.7-17.8,39.7-39.7
		S1364.3,181.3,1342.4,181.3z"/>
</g>
<g>
	<path class="st0" d="M1536.6,269.5c-26.7,0-48.5-21.8-48.5-48.5s21.8-48.5,48.5-48.5s48.5,21.8,48.5,48.5
		S1563.4,269.5,1536.6,269.5z M1536.6,181.3c-21.9,0-39.7,17.8-39.7,39.7s17.8,39.7,39.7,39.7c21.9,0,39.7-17.8,39.7-39.7
		S1558.5,181.3,1536.6,181.3z"/>
</g>
<g>
	<path class="st0" d="M1730.8,269.5c-26.7,0-48.5-21.8-48.5-48.5s21.8-48.5,48.5-48.5s48.5,21.8,48.5,48.5
		S1757.6,269.5,1730.8,269.5z M1730.8,181.3c-21.9,0-39.7,17.8-39.7,39.7s17.8,39.7,39.7,39.7c21.9,0,39.7-17.8,39.7-39.7
		S1752.7,181.3,1730.8,181.3z"/>
</g>
<g>
	<path class="st0" d="M1925.1,269.5c-26.7,0-48.5-21.8-48.5-48.5s21.8-48.5,48.5-48.5s48.5,21.8,48.5,48.5
		S1951.8,269.5,1925.1,269.5z M1925.1,181.3c-21.9,0-39.7,17.8-39.7,39.7s17.8,39.7,39.7,39.7c21.9,0,39.7-17.8,39.7-39.7
		S1946.9,181.3,1925.1,181.3z"/>
</g>
<g>
	<path class="st0" d="M2119.3,269.5c-26.7,0-48.5-21.8-48.5-48.5s21.8-48.5,48.5-48.5c26.7,0,48.5,21.8,48.5,48.5
		S2146,269.5,2119.3,269.5z M2119.3,181.3c-21.9,0-39.7,17.8-39.7,39.7s17.8,39.7,39.7,39.7s39.7-17.8,39.7-39.7
		S2141.2,181.3,2119.3,181.3z"/>
</g>
<g>
	<path class="st0" d="M2313.5,269.5c-26.7,0-48.5-21.8-48.5-48.5s21.8-48.5,48.5-48.5c26.7,0,48.5,21.8,48.5,48.5
		S2340.3,269.5,2313.5,269.5z M2313.5,181.3c-21.9,0-39.7,17.8-39.7,39.7s17.8,39.7,39.7,39.7s39.7-17.8,39.7-39.7
		S2335.4,181.3,2313.5,181.3z"/>
</g>
<g>
	<path class="st0" d="M2507.7,269.5c-26.7,0-48.5-21.8-48.5-48.5s21.8-48.5,48.5-48.5c26.7,0,48.5,21.8,48.5,48.5
		S2534.5,269.5,2507.7,269.5z M2507.7,181.3c-21.9,0-39.7,17.8-39.7,39.7s17.8,39.7,39.7,39.7s39.7-17.8,39.7-39.7
		S2529.6,181.3,2507.7,181.3z"/>
</g>
<g>
	<path class="st0" d="M2702,269.5c-26.7,0-48.5-21.8-48.5-48.5s21.8-48.5,48.5-48.5c26.7,0,48.5,21.8,48.5,48.5
		S2728.7,269.5,2702,269.5z M2702,181.3c-21.9,0-39.7,17.8-39.7,39.7s17.8,39.7,39.7,39.7c21.9,0,39.7-17.8,39.7-39.7
		S2723.8,181.3,2702,181.3z"/>
</g>
<g>
	<path class="st0" d="M177,657.5c-26.7,0-48.5-21.8-48.5-48.5s21.8-48.5,48.5-48.5s48.5,21.8,48.5,48.5S203.8,657.5,177,657.5z
		 M177,569.3c-21.9,0-39.7,17.8-39.7,39.7s17.8,39.7,39.7,39.7s39.7-17.8,39.7-39.7S198.9,569.3,177,569.3z"/>
</g>
<g>
	<path class="st0" d="M274,851.5c-26.7,0-48.5-21.8-48.5-48.5s21.8-48.5,48.5-48.5c26.7,0,48.5,21.8,48.5,48.5
		S300.8,851.5,274,851.5z M274,763.3c-21.9,0-39.7,17.8-39.7,39.7s17.8,39.7,39.7,39.7c21.9,0,39.7-17.8,39.7-39.7
		S295.9,763.3,274,763.3z"/>
</g>
<g>
	<path class="st0" d="M468,851.5c-26.7,0-48.5-21.8-48.5-48.5s21.8-48.5,48.5-48.5c26.7,0,48.5,21.8,48.5,48.5
		S494.8,851.5,468,851.5z M468,763.3c-21.9,0-39.7,17.8-39.7,39.7s17.8,39.7,39.7,39.7c21.9,0,39.7-17.8,39.7-39.7
		S489.9,763.3,468,763.3z"/>
</g>
<g>
	<path class="st0" d="M662,851.5c-26.7,0-48.5-21.8-48.5-48.5s21.8-48.5,48.5-48.5s48.5,21.8,48.5,48.5S688.8,851.5,662,851.5z
		 M662,763.3c-21.9,0-39.7,17.8-39.7,39.7s17.8,39.7,39.7,39.7s39.7-17.8,39.7-39.7S683.9,763.3,662,763.3z"/>
</g>
<g>
	<path class="st0" d="M856,851.5c-26.7,0-48.5-21.8-48.5-48.5s21.8-48.5,48.5-48.5s48.5,21.8,48.5,48.5S882.8,851.5,856,851.5z
		 M856,763.3c-21.9,0-39.7,17.8-39.7,39.7s17.8,39.7,39.7,39.7s39.7-17.8,39.7-39.7S877.9,763.3,856,763.3z"/>
</g>
<g>
	<path class="st0" d="M1050,851.5c-26.7,0-48.5-21.8-48.5-48.5s21.8-48.5,48.5-48.5c26.7,0,48.5,21.8,48.5,48.5
		S1076.8,851.5,1050,851.5z M1050,763.3c-21.9,0-39.7,17.8-39.7,39.7s17.8,39.7,39.7,39.7c21.9,0,39.7-17.8,39.7-39.7
		S1071.9,763.3,1050,763.3z"/>
</g>
<g>
	<path class="st0" d="M1244,851.5c-26.7,0-48.5-21.8-48.5-48.5s21.8-48.5,48.5-48.5s48.5,21.8,48.5,48.5S1270.8,851.5,1244,851.5z
		 M1244,763.3c-21.9,0-39.7,17.8-39.7,39.7s17.8,39.7,39.7,39.7c21.9,0,39.7-17.8,39.7-39.7S1265.9,763.3,1244,763.3z"/>
</g>
<g>
	<path class="st0" d="M1438,851.5c-26.7,0-48.5-21.8-48.5-48.5s21.8-48.5,48.5-48.5s48.5,21.8,48.5,48.5S1464.8,851.5,1438,851.5z
		 M1438,763.3c-21.9,0-39.7,17.8-39.7,39.7s17.8,39.7,39.7,39.7c21.9,0,39.7-17.8,39.7-39.7S1459.9,763.3,1438,763.3z"/>
</g>
<g>
	<path class="st0" d="M1632,851.5c-26.7,0-48.5-21.8-48.5-48.5s21.8-48.5,48.5-48.5s48.5,21.8,48.5,48.5S1658.8,851.5,1632,851.5z
		 M1632,763.3c-21.9,0-39.7,17.8-39.7,39.7s17.8,39.7,39.7,39.7c21.9,0,39.7-17.8,39.7-39.7S1653.9,763.3,1632,763.3z"/>
</g>
<g>
	<path class="st0" d="M1826,851.5c-26.7,0-48.5-21.8-48.5-48.5s21.8-48.5,48.5-48.5s48.5,21.8,48.5,48.5S1852.8,851.5,1826,851.5z
		 M1826,763.3c-21.9,0-39.7,17.8-39.7,39.7s17.8,39.7,39.7,39.7c21.9,0,39.7-17.8,39.7-39.7S1847.9,763.3,1826,763.3z"/>
</g>
<g>
	<path class="st0" d="M2020,851.5c-26.7,0-48.5-21.8-48.5-48.5s21.8-48.5,48.5-48.5s48.5,21.8,48.5,48.5S2046.8,851.5,2020,851.5z
		 M2020,763.3c-21.9,0-39.7,17.8-39.7,39.7s17.8,39.7,39.7,39.7c21.9,0,39.7-17.8,39.7-39.7S2041.9,763.3,2020,763.3z"/>
</g>
<g>
	<path class="st0" d="M2214,851.5c-26.7,0-48.5-21.8-48.5-48.5s21.8-48.5,48.5-48.5c26.7,0,48.5,21.8,48.5,48.5
		S2240.8,851.5,2214,851.5z M2214,763.3c-21.9,0-39.7,17.8-39.7,39.7s17.8,39.7,39.7,39.7c21.9,0,39.7-17.8,39.7-39.7
		S2235.9,763.3,2214,763.3z"/>
</g>
<g>
	<path class="st0" d="M2408,851.5c-26.7,0-48.5-21.8-48.5-48.5s21.8-48.5,48.5-48.5c26.7,0,48.5,21.8,48.5,48.5
		S2434.8,851.5,2408,851.5z M2408,763.3c-21.9,0-39.7,17.8-39.7,39.7s17.8,39.7,39.7,39.7c21.9,0,39.7-17.8,39.7-39.7
		S2429.9,763.3,2408,763.3z"/>
</g>
<g>
	<path class="st0" d="M2602,851.5c-26.7,0-48.5-21.8-48.5-48.5s21.8-48.5,48.5-48.5c26.7,0,48.5,21.8,48.5,48.5
		S2628.8,851.5,2602,851.5z M2602,763.3c-21.9,0-39.7,17.8-39.7,39.7s17.8,39.7,39.7,39.7c21.9,0,39.7-17.8,39.7-39.7
		S2623.9,763.3,2602,763.3z"/>
</g>
<g>
	<path class="st0" d="M371.3,657.5c-26.7,0-48.5-21.8-48.5-48.5s21.8-48.5,48.5-48.5c26.7,0,48.5,21.8,48.5,48.5
		S398,657.5,371.3,657.5z M371.3,569.3c-21.9,0-39.7,17.8-39.7,39.7s17.8,39.7,39.7,39.7c21.9,0,39.7-17.8,39.7-39.7
		S393.1,569.3,371.3,569.3z"/>
</g>
<g>
	<path class="st0" d="M565.5,657.5c-26.7,0-48.5-21.8-48.5-48.5s21.8-48.5,48.5-48.5S614,582.3,614,609S592.2,657.5,565.5,657.5z
		 M565.5,569.3c-21.9,0-39.7,17.8-39.7,39.7s17.8,39.7,39.7,39.7s39.7-17.8,39.7-39.7S587.4,569.3,565.5,569.3z"/>
</g>
<g>
	<path class="st0" d="M759.7,657.5c-26.7,0-48.5-21.8-48.5-48.5s21.8-48.5,48.5-48.5s48.5,21.8,48.5,48.5S786.5,657.5,759.7,657.5z
		 M759.7,569.3c-21.9,0-39.7,17.8-39.7,39.7s17.8,39.7,39.7,39.7s39.7-17.8,39.7-39.7S781.6,569.3,759.7,569.3z"/>
</g>
<g>
	<path class="st0" d="M953.9,657.5c-26.7,0-48.5-21.8-48.5-48.5s21.8-48.5,48.5-48.5s48.5,21.8,48.5,48.5S980.7,657.5,953.9,657.5z
		 M953.9,569.3c-21.9,0-39.7,17.8-39.7,39.7s17.8,39.7,39.7,39.7s39.7-17.8,39.7-39.7S975.8,569.3,953.9,569.3z"/>
</g>
<g>
	<path class="st0" d="M1148.2,657.5c-26.7,0-48.5-21.8-48.5-48.5s21.8-48.5,48.5-48.5s48.5,21.8,48.5,48.5
		S1174.9,657.5,1148.2,657.5z M1148.2,569.3c-21.9,0-39.7,17.8-39.7,39.7s17.8,39.7,39.7,39.7c21.9,0,39.7-17.8,39.7-39.7
		S1170,569.3,1148.2,569.3z"/>
</g>
<g>
	<path class="st0" d="M1342.4,657.5c-26.7,0-48.5-21.8-48.5-48.5s21.8-48.5,48.5-48.5s48.5,21.8,48.5,48.5
		S1369.1,657.5,1342.4,657.5z M1342.4,569.3c-21.9,0-39.7,17.8-39.7,39.7s17.8,39.7,39.7,39.7c21.9,0,39.7-17.8,39.7-39.7
		S1364.3,569.3,1342.4,569.3z"/>
</g>
<g>
	<path class="st0" d="M1536.6,657.5c-26.7,0-48.5-21.8-48.5-48.5s21.8-48.5,48.5-48.5s48.5,21.8,48.5,48.5
		S1563.4,657.5,1536.6,657.5z M1536.6,569.3c-21.9,0-39.7,17.8-39.7,39.7s17.8,39.7,39.7,39.7c21.9,0,39.7-17.8,39.7-39.7
		S1558.5,569.3,1536.6,569.3z"/>
</g>
<g>
	<path class="st0" d="M1730.8,657.5c-26.7,0-48.5-21.8-48.5-48.5s21.8-48.5,48.5-48.5s48.5,21.8,48.5,48.5
		S1757.6,657.5,1730.8,657.5z M1730.8,569.3c-21.9,0-39.7,17.8-39.7,39.7s17.8,39.7,39.7,39.7c21.9,0,39.7-17.8,39.7-39.7
		S1752.7,569.3,1730.8,569.3z"/>
</g>
<g>
	<path class="st0" d="M1925.1,657.5c-26.7,0-48.5-21.8-48.5-48.5s21.8-48.5,48.5-48.5s48.5,21.8,48.5,48.5
		S1951.8,657.5,1925.1,657.5z M1925.1,569.3c-21.9,0-39.7,17.8-39.7,39.7s17.8,39.7,39.7,39.7c21.9,0,39.7-17.8,39.7-39.7
		S1946.9,569.3,1925.1,569.3z"/>
</g>
<g>
	<path class="st0" d="M2119.3,657.5c-26.7,0-48.5-21.8-48.5-48.5s21.8-48.5,48.5-48.5c26.7,0,48.5,21.8,48.5,48.5
		S2146,657.5,2119.3,657.5z M2119.3,569.3c-21.9,0-39.7,17.8-39.7,39.7s17.8,39.7,39.7,39.7s39.7-17.8,39.7-39.7
		S2141.2,569.3,2119.3,569.3z"/>
</g>
<g>
	<path class="st0" d="M2313.5,657.5c-26.7,0-48.5-21.8-48.5-48.5s21.8-48.5,48.5-48.5c26.7,0,48.5,21.8,48.5,48.5
		S2340.3,657.5,2313.5,657.5z M2313.5,569.3c-21.9,0-39.7,17.8-39.7,39.7s17.8,39.7,39.7,39.7s39.7-17.8,39.7-39.7
		S2335.4,569.3,2313.5,569.3z"/>
</g>
<g>
	<path class="st0" d="M2507.7,657.5c-26.7,0-48.5-21.8-48.5-48.5s21.8-48.5,48.5-48.5c26.7,0,48.5,21.8,48.5,48.5
		S2534.5,657.5,2507.7,657.5z M2507.7,569.3c-21.9,0-39.7,17.8-39.7,39.7s17.8,39.7,39.7,39.7s39.7-17.8,39.7-39.7
		S2529.6,569.3,2507.7,569.3z"/>
</g>
<g>
	<path class="st0" d="M2702,657.5c-26.7,0-48.5-21.8-48.5-48.5s21.8-48.5,48.5-48.5c26.7,0,48.5,21.8,48.5,48.5
		S2728.7,657.5,2702,657.5z M2702,569.3c-21.9,0-39.7,17.8-39.7,39.7s17.8,39.7,39.7,39.7c21.9,0,39.7-17.8,39.7-39.7
		S2723.8,569.3,2702,569.3z"/>
</g>
<g>
	<path class="st0" d="M177,1045.5c-26.7,0-48.5-21.8-48.5-48.5s21.8-48.5,48.5-48.5s48.5,21.8,48.5,48.5S203.8,1045.5,177,1045.5z
		 M177,957.3c-21.9,0-39.7,17.8-39.7,39.7s17.8,39.7,39.7,39.7s39.7-17.8,39.7-39.7S198.9,957.3,177,957.3z"/>
</g>
<g>
	<path class="st0" d="M274,1239.5c-26.7,0-48.5-21.8-48.5-48.5s21.8-48.5,48.5-48.5c26.7,0,48.5,21.8,48.5,48.5
		S300.8,1239.5,274,1239.5z M274,1151.3c-21.9,0-39.7,17.8-39.7,39.7s17.8,39.7,39.7,39.7c21.9,0,39.7-17.8,39.7-39.7
		S295.9,1151.3,274,1151.3z"/>
</g>
<g>
	<path class="st0" d="M468,1239.5c-26.7,0-48.5-21.8-48.5-48.5s21.8-48.5,48.5-48.5c26.7,0,48.5,21.8,48.5,48.5
		S494.8,1239.5,468,1239.5z M468,1151.3c-21.9,0-39.7,17.8-39.7,39.7s17.8,39.7,39.7,39.7c21.9,0,39.7-17.8,39.7-39.7
		S489.9,1151.3,468,1151.3z"/>
</g>
<g>
	<path class="st0" d="M662,1239.5c-26.7,0-48.5-21.8-48.5-48.5s21.8-48.5,48.5-48.5s48.5,21.8,48.5,48.5S688.8,1239.5,662,1239.5z
		 M662,1151.3c-21.9,0-39.7,17.8-39.7,39.7s17.8,39.7,39.7,39.7s39.7-17.8,39.7-39.7S683.9,1151.3,662,1151.3z"/>
</g>
<g>
	<path class="st0" d="M856,1239.5c-26.7,0-48.5-21.8-48.5-48.5s21.8-48.5,48.5-48.5s48.5,21.8,48.5,48.5S882.8,1239.5,856,1239.5z
		 M856,1151.3c-21.9,0-39.7,17.8-39.7,39.7s17.8,39.7,39.7,39.7s39.7-17.8,39.7-39.7S877.9,1151.3,856,1151.3z"/>
</g>
<g>
	<path class="st0" d="M1050,1239.5c-26.7,0-48.5-21.8-48.5-48.5s21.8-48.5,48.5-48.5c26.7,0,48.5,21.8,48.5,48.5
		S1076.8,1239.5,1050,1239.5z M1050,1151.3c-21.9,0-39.7,17.8-39.7,39.7s17.8,39.7,39.7,39.7c21.9,0,39.7-17.8,39.7-39.7
		S1071.9,1151.3,1050,1151.3z"/>
</g>
<g>
	<path class="st0" d="M1244,1239.5c-26.7,0-48.5-21.8-48.5-48.5s21.8-48.5,48.5-48.5s48.5,21.8,48.5,48.5S1270.8,1239.5,1244,1239.5
		z M1244,1151.3c-21.9,0-39.7,17.8-39.7,39.7s17.8,39.7,39.7,39.7c21.9,0,39.7-17.8,39.7-39.7S1265.9,1151.3,1244,1151.3z"/>
</g>
<g>
	<path class="st0" d="M1438,1239.5c-26.7,0-48.5-21.8-48.5-48.5s21.8-48.5,48.5-48.5s48.5,21.8,48.5,48.5S1464.8,1239.5,1438,1239.5
		z M1438,1151.3c-21.9,0-39.7,17.8-39.7,39.7s17.8,39.7,39.7,39.7c21.9,0,39.7-17.8,39.7-39.7S1459.9,1151.3,1438,1151.3z"/>
</g>
<g>
	<path class="st0" d="M1632,1239.5c-26.7,0-48.5-21.8-48.5-48.5s21.8-48.5,48.5-48.5s48.5,21.8,48.5,48.5S1658.8,1239.5,1632,1239.5
		z M1632,1151.3c-21.9,0-39.7,17.8-39.7,39.7s17.8,39.7,39.7,39.7c21.9,0,39.7-17.8,39.7-39.7S1653.9,1151.3,1632,1151.3z"/>
</g>
<g>
	<path class="st0" d="M1826,1239.5c-26.7,0-48.5-21.8-48.5-48.5s21.8-48.5,48.5-48.5s48.5,21.8,48.5,48.5S1852.8,1239.5,1826,1239.5
		z M1826,1151.3c-21.9,0-39.7,17.8-39.7,39.7s17.8,39.7,39.7,39.7c21.9,0,39.7-17.8,39.7-39.7S1847.9,1151.3,1826,1151.3z"/>
</g>
<g>
	<path class="st0" d="M2020,1239.5c-26.7,0-48.5-21.8-48.5-48.5s21.8-48.5,48.5-48.5s48.5,21.8,48.5,48.5S2046.8,1239.5,2020,1239.5
		z M2020,1151.3c-21.9,0-39.7,17.8-39.7,39.7s17.8,39.7,39.7,39.7c21.9,0,39.7-17.8,39.7-39.7S2041.9,1151.3,2020,1151.3z"/>
</g>
<g>
	<path class="st0" d="M2214,1239.5c-26.7,0-48.5-21.8-48.5-48.5s21.8-48.5,48.5-48.5c26.7,0,48.5,21.8,48.5,48.5
		S2240.8,1239.5,2214,1239.5z M2214,1151.3c-21.9,0-39.7,17.8-39.7,39.7s17.8,39.7,39.7,39.7c21.9,0,39.7-17.8,39.7-39.7
		S2235.9,1151.3,2214,1151.3z"/>
</g>
<g>
	<path class="st0" d="M2408,1239.5c-26.7,0-48.5-21.8-48.5-48.5s21.8-48.5,48.5-48.5c26.7,0,48.5,21.8,48.5,48.5
		S2434.8,1239.5,2408,1239.5z M2408,1151.3c-21.9,0-39.7,17.8-39.7,39.7s17.8,39.7,39.7,39.7c21.9,0,39.7-17.8,39.7-39.7
		S2429.9,1151.3,2408,1151.3z"/>
</g>
<g>
	<path class="st0" d="M2602,1239.5c-26.7,0-48.5-21.8-48.5-48.5s21.8-48.5,48.5-48.5c26.7,0,48.5,21.8,48.5,48.5
		S2628.8,1239.5,2602,1239.5z M2602,1151.3c-21.9,0-39.7,17.8-39.7,39.7s17.8,39.7,39.7,39.7c21.9,0,39.7-17.8,39.7-39.7
		S2623.9,1151.3,2602,1151.3z"/>
</g>
<g>
	<path class="st0" d="M371.3,1045.5c-26.7,0-48.5-21.8-48.5-48.5s21.8-48.5,48.5-48.5c26.7,0,48.5,21.8,48.5,48.5
		S398,1045.5,371.3,1045.5z M371.3,957.3c-21.9,0-39.7,17.8-39.7,39.7s17.8,39.7,39.7,39.7c21.9,0,39.7-17.8,39.7-39.7
		S393.1,957.3,371.3,957.3z"/>
</g>
<g>
	<path class="st0" d="M565.5,1045.5c-26.7,0-48.5-21.8-48.5-48.5s21.8-48.5,48.5-48.5S614,970.3,614,997S592.2,1045.5,565.5,1045.5z
		 M565.5,957.3c-21.9,0-39.7,17.8-39.7,39.7s17.8,39.7,39.7,39.7s39.7-17.8,39.7-39.7S587.4,957.3,565.5,957.3z"/>
</g>
<g>
	<path class="st0" d="M759.7,1045.5c-26.7,0-48.5-21.8-48.5-48.5s21.8-48.5,48.5-48.5s48.5,21.8,48.5,48.5
		S786.5,1045.5,759.7,1045.5z M759.7,957.3c-21.9,0-39.7,17.8-39.7,39.7s17.8,39.7,39.7,39.7s39.7-17.8,39.7-39.7
		S781.6,957.3,759.7,957.3z"/>
</g>
<g>
	<path class="st0" d="M953.9,1045.5c-26.7,0-48.5-21.8-48.5-48.5s21.8-48.5,48.5-48.5s48.5,21.8,48.5,48.5
		S980.7,1045.5,953.9,1045.5z M953.9,957.3c-21.9,0-39.7,17.8-39.7,39.7s17.8,39.7,39.7,39.7s39.7-17.8,39.7-39.7
		S975.8,957.3,953.9,957.3z"/>
</g>
<g>
	<path class="st0" d="M1148.2,1045.5c-26.7,0-48.5-21.8-48.5-48.5s21.8-48.5,48.5-48.5s48.5,21.8,48.5,48.5
		S1174.9,1045.5,1148.2,1045.5z M1148.2,957.3c-21.9,0-39.7,17.8-39.7,39.7s17.8,39.7,39.7,39.7c21.9,0,39.7-17.8,39.7-39.7
		S1170,957.3,1148.2,957.3z"/>
</g>
<g>
	<path class="st0" d="M1342.4,1045.5c-26.7,0-48.5-21.8-48.5-48.5s21.8-48.5,48.5-48.5s48.5,21.8,48.5,48.5
		S1369.1,1045.5,1342.4,1045.5z M1342.4,957.3c-21.9,0-39.7,17.8-39.7,39.7s17.8,39.7,39.7,39.7c21.9,0,39.7-17.8,39.7-39.7
		S1364.3,957.3,1342.4,957.3z"/>
</g>
<g>
	<path class="st0" d="M1536.6,1045.5c-26.7,0-48.5-21.8-48.5-48.5s21.8-48.5,48.5-48.5s48.5,21.8,48.5,48.5
		S1563.4,1045.5,1536.6,1045.5z M1536.6,957.3c-21.9,0-39.7,17.8-39.7,39.7s17.8,39.7,39.7,39.7c21.9,0,39.7-17.8,39.7-39.7
		S1558.5,957.3,1536.6,957.3z"/>
</g>
<g>
	<path class="st0" d="M1730.8,1045.5c-26.7,0-48.5-21.8-48.5-48.5s21.8-48.5,48.5-48.5s48.5,21.8,48.5,48.5
		S1757.6,1045.5,1730.8,1045.5z M1730.8,957.3c-21.9,0-39.7,17.8-39.7,39.7s17.8,39.7,39.7,39.7c21.9,0,39.7-17.8,39.7-39.7
		S1752.7,957.3,1730.8,957.3z"/>
</g>
<g>
	<path class="st0" d="M1925.1,1045.5c-26.7,0-48.5-21.8-48.5-48.5s21.8-48.5,48.5-48.5s48.5,21.8,48.5,48.5
		S1951.8,1045.5,1925.1,1045.5z M1925.1,957.3c-21.9,0-39.7,17.8-39.7,39.7s17.8,39.7,39.7,39.7c21.9,0,39.7-17.8,39.7-39.7
		S1946.9,957.3,1925.1,957.3z"/>
</g>
<g>
	<path class="st0" d="M2119.3,1045.5c-26.7,0-48.5-21.8-48.5-48.5s21.8-48.5,48.5-48.5c26.7,0,48.5,21.8,48.5,48.5
		S2146,1045.5,2119.3,1045.5z M2119.3,957.3c-21.9,0-39.7,17.8-39.7,39.7s17.8,39.7,39.7,39.7s39.7-17.8,39.7-39.7
		S2141.2,957.3,2119.3,957.3z"/>
</g>
<g>
	<path class="st0" d="M2313.5,1045.5c-26.7,0-48.5-21.8-48.5-48.5s21.8-48.5,48.5-48.5c26.7,0,48.5,21.8,48.5,48.5
		S2340.3,1045.5,2313.5,1045.5z M2313.5,957.3c-21.9,0-39.7,17.8-39.7,39.7s17.8,39.7,39.7,39.7s39.7-17.8,39.7-39.7
		S2335.4,957.3,2313.5,957.3z"/>
</g>
<g>
	<path class="st0" d="M2507.7,1045.5c-26.7,0-48.5-21.8-48.5-48.5s21.8-48.5,48.5-48.5c26.7,0,48.5,21.8,48.5,48.5
		S2534.5,1045.5,2507.7,1045.5z M2507.7,957.3c-21.9,0-39.7,17.8-39.7,39.7s17.8,39.7,39.7,39.7s39.7-17.8,39.7-39.7
		S2529.6,957.3,2507.7,957.3z"/>
</g>
<g>
	<path class="st0" d="M2702,1045.5c-26.7,0-48.5-21.8-48.5-48.5s21.8-48.5,48.5-48.5c26.7,0,48.5,21.8,48.5,48.5
		S2728.7,1045.5,2702,1045.5z M2702,957.3c-21.9,0-39.7,17.8-39.7,39.7s17.8,39.7,39.7,39.7c21.9,0,39.7-17.8,39.7-39.7
		S2723.8,957.3,2702,957.3z"/>
</g>
<g>
	<path class="st0" d="M177,1433.5c-26.7,0-48.5-21.8-48.5-48.5s21.8-48.5,48.5-48.5s48.5,21.8,48.5,48.5S203.8,1433.5,177,1433.5z
		 M177,1345.3c-21.9,0-39.7,17.8-39.7,39.7s17.8,39.7,39.7,39.7s39.7-17.8,39.7-39.7S198.9,1345.3,177,1345.3z"/>
</g>
<g>
	<path class="st0" d="M274,1627.5c-26.7,0-48.5-21.8-48.5-48.5s21.8-48.5,48.5-48.5c26.7,0,48.5,21.8,48.5,48.5
		S300.8,1627.5,274,1627.5z M274,1539.3c-21.9,0-39.7,17.8-39.7,39.7s17.8,39.7,39.7,39.7c21.9,0,39.7-17.8,39.7-39.7
		S295.9,1539.3,274,1539.3z"/>
</g>
<g>
	<path class="st0" d="M468,1627.5c-26.7,0-48.5-21.8-48.5-48.5s21.8-48.5,48.5-48.5c26.7,0,48.5,21.8,48.5,48.5
		S494.8,1627.5,468,1627.5z M468,1539.3c-21.9,0-39.7,17.8-39.7,39.7s17.8,39.7,39.7,39.7c21.9,0,39.7-17.8,39.7-39.7
		S489.9,1539.3,468,1539.3z"/>
</g>
<g>
	<path class="st0" d="M662,1627.5c-26.7,0-48.5-21.8-48.5-48.5s21.8-48.5,48.5-48.5s48.5,21.8,48.5,48.5S688.8,1627.5,662,1627.5z
		 M662,1539.3c-21.9,0-39.7,17.8-39.7,39.7s17.8,39.7,39.7,39.7s39.7-17.8,39.7-39.7S683.9,1539.3,662,1539.3z"/>
</g>
<g>
	<path class="st0" d="M856,1627.5c-26.7,0-48.5-21.8-48.5-48.5s21.8-48.5,48.5-48.5s48.5,21.8,48.5,48.5S882.8,1627.5,856,1627.5z
		 M856,1539.3c-21.9,0-39.7,17.8-39.7,39.7s17.8,39.7,39.7,39.7s39.7-17.8,39.7-39.7S877.9,1539.3,856,1539.3z"/>
</g>
<g>
	<path class="st0" d="M1050,1627.5c-26.7,0-48.5-21.8-48.5-48.5s21.8-48.5,48.5-48.5c26.7,0,48.5,21.8,48.5,48.5
		S1076.8,1627.5,1050,1627.5z M1050,1539.3c-21.9,0-39.7,17.8-39.7,39.7s17.8,39.7,39.7,39.7c21.9,0,39.7-17.8,39.7-39.7
		S1071.9,1539.3,1050,1539.3z"/>
</g>
<g>
	<path class="st0" d="M1244,1627.5c-26.7,0-48.5-21.8-48.5-48.5s21.8-48.5,48.5-48.5s48.5,21.8,48.5,48.5S1270.8,1627.5,1244,1627.5
		z M1244,1539.3c-21.9,0-39.7,17.8-39.7,39.7s17.8,39.7,39.7,39.7c21.9,0,39.7-17.8,39.7-39.7S1265.9,1539.3,1244,1539.3z"/>
</g>
<g>
	<path class="st0" d="M1438,1627.5c-26.7,0-48.5-21.8-48.5-48.5s21.8-48.5,48.5-48.5s48.5,21.8,48.5,48.5S1464.8,1627.5,1438,1627.5
		z M1438,1539.3c-21.9,0-39.7,17.8-39.7,39.7s17.8,39.7,39.7,39.7c21.9,0,39.7-17.8,39.7-39.7S1459.9,1539.3,1438,1539.3z"/>
</g>
<g>
	<path class="st0" d="M1632,1627.5c-26.7,0-48.5-21.8-48.5-48.5s21.8-48.5,48.5-48.5s48.5,21.8,48.5,48.5S1658.8,1627.5,1632,1627.5
		z M1632,1539.3c-21.9,0-39.7,17.8-39.7,39.7s17.8,39.7,39.7,39.7c21.9,0,39.7-17.8,39.7-39.7S1653.9,1539.3,1632,1539.3z"/>
</g>
<g>
	<path class="st0" d="M1826,1627.5c-26.7,0-48.5-21.8-48.5-48.5s21.8-48.5,48.5-48.5s48.5,21.8,48.5,48.5S1852.8,1627.5,1826,1627.5
		z M1826,1539.3c-21.9,0-39.7,17.8-39.7,39.7s17.8,39.7,39.7,39.7c21.9,0,39.7-17.8,39.7-39.7S1847.9,1539.3,1826,1539.3z"/>
</g>
<g>
	<path class="st0" d="M2020,1627.5c-26.7,0-48.5-21.8-48.5-48.5s21.8-48.5,48.5-48.5s48.5,21.8,48.5,48.5S2046.8,1627.5,2020,1627.5
		z M2020,1539.3c-21.9,0-39.7,17.8-39.7,39.7s17.8,39.7,39.7,39.7c21.9,0,39.7-17.8,39.7-39.7S2041.9,1539.3,2020,1539.3z"/>
</g>
<g>
	<path class="st0" d="M2214,1627.5c-26.7,0-48.5-21.8-48.5-48.5s21.8-48.5,48.5-48.5c26.7,0,48.5,21.8,48.5,48.5
		S2240.8,1627.5,2214,1627.5z M2214,1539.3c-21.9,0-39.7,17.8-39.7,39.7s17.8,39.7,39.7,39.7c21.9,0,39.7-17.8,39.7-39.7
		S2235.9,1539.3,2214,1539.3z"/>
</g>
<g>
	<path class="st0" d="M2408,1627.5c-26.7,0-48.5-21.8-48.5-48.5s21.8-48.5,48.5-48.5c26.7,0,48.5,21.8,48.5,48.5
		S2434.8,1627.5,2408,1627.5z M2408,1539.3c-21.9,0-39.7,17.8-39.7,39.7s17.8,39.7,39.7,39.7c21.9,0,39.7-17.8,39.7-39.7
		S2429.9,1539.3,2408,1539.3z"/>
</g>
<g>
	<path class="st0" d="M2602,1627.5c-26.7,0-48.5-21.8-48.5-48.5s21.8-48.5,48.5-48.5c26.7,0,48.5,21.8,48.5,48.5
		S2628.8,1627.5,2602,1627.5z M2602,1539.3c-21.9,0-39.7,17.8-39.7,39.7s17.8,39.7,39.7,39.7c21.9,0,39.7-17.8,39.7-39.7
		S2623.9,1539.3,2602,1539.3z"/>
</g>
<g>
	<path class="st0" d="M371.3,1433.5c-26.7,0-48.5-21.8-48.5-48.5s21.8-48.5,48.5-48.5c26.7,0,48.5,21.8,48.5,48.5
		S398,1433.5,371.3,1433.5z M371.3,1345.3c-21.9,0-39.7,17.8-39.7,39.7s17.8,39.7,39.7,39.7c21.9,0,39.7-17.8,39.7-39.7
		S393.1,1345.3,371.3,1345.3z"/>
</g>
<g>
	<path class="st0" d="M565.5,1433.5c-26.7,0-48.5-21.8-48.5-48.5s21.8-48.5,48.5-48.5s48.5,21.8,48.5,48.5
		S592.2,1433.5,565.5,1433.5z M565.5,1345.3c-21.9,0-39.7,17.8-39.7,39.7s17.8,39.7,39.7,39.7s39.7-17.8,39.7-39.7
		S587.4,1345.3,565.5,1345.3z"/>
</g>
<g>
	<path class="st0" d="M759.7,1433.5c-26.7,0-48.5-21.8-48.5-48.5s21.8-48.5,48.5-48.5s48.5,21.8,48.5,48.5
		S786.5,1433.5,759.7,1433.5z M759.7,1345.3c-21.9,0-39.7,17.8-39.7,39.7s17.8,39.7,39.7,39.7s39.7-17.8,39.7-39.7
		S781.6,1345.3,759.7,1345.3z"/>
</g>
<g>
	<path class="st0" d="M953.9,1433.5c-26.7,0-48.5-21.8-48.5-48.5s21.8-48.5,48.5-48.5s48.5,21.8,48.5,48.5
		S980.7,1433.5,953.9,1433.5z M953.9,1345.3c-21.9,0-39.7,17.8-39.7,39.7s17.8,39.7,39.7,39.7s39.7-17.8,39.7-39.7
		S975.8,1345.3,953.9,1345.3z"/>
</g>
<g>
	<path class="st0" d="M1148.2,1433.5c-26.7,0-48.5-21.8-48.5-48.5s21.8-48.5,48.5-48.5s48.5,21.8,48.5,48.5
		S1174.9,1433.5,1148.2,1433.5z M1148.2,1345.3c-21.9,0-39.7,17.8-39.7,39.7s17.8,39.7,39.7,39.7c21.9,0,39.7-17.8,39.7-39.7
		S1170,1345.3,1148.2,1345.3z"/>
</g>
<g>
	<path class="st0" d="M1342.4,1433.5c-26.7,0-48.5-21.8-48.5-48.5s21.8-48.5,48.5-48.5s48.5,21.8,48.5,48.5
		S1369.1,1433.5,1342.4,1433.5z M1342.4,1345.3c-21.9,0-39.7,17.8-39.7,39.7s17.8,39.7,39.7,39.7c21.9,0,39.7-17.8,39.7-39.7
		S1364.3,1345.3,1342.4,1345.3z"/>
</g>
<g>
	<path class="st0" d="M1536.6,1433.5c-26.7,0-48.5-21.8-48.5-48.5s21.8-48.5,48.5-48.5s48.5,21.8,48.5,48.5
		S1563.4,1433.5,1536.6,1433.5z M1536.6,1345.3c-21.9,0-39.7,17.8-39.7,39.7s17.8,39.7,39.7,39.7c21.9,0,39.7-17.8,39.7-39.7
		S1558.5,1345.3,1536.6,1345.3z"/>
</g>
<g>
	<path class="st0" d="M1730.8,1433.5c-26.7,0-48.5-21.8-48.5-48.5s21.8-48.5,48.5-48.5s48.5,21.8,48.5,48.5
		S1757.6,1433.5,1730.8,1433.5z M1730.8,1345.3c-21.9,0-39.7,17.8-39.7,39.7s17.8,39.7,39.7,39.7c21.9,0,39.7-17.8,39.7-39.7
		S1752.7,1345.3,1730.8,1345.3z"/>
</g>
<g>
	<path class="st0" d="M1925.1,1433.5c-26.7,0-48.5-21.8-48.5-48.5s21.8-48.5,48.5-48.5s48.5,21.8,48.5,48.5
		S1951.8,1433.5,1925.1,1433.5z M1925.1,1345.3c-21.9,0-39.7,17.8-39.7,39.7s17.8,39.7,39.7,39.7c21.9,0,39.7-17.8,39.7-39.7
		S1946.9,1345.3,1925.1,1345.3z"/>
</g>
<g>
	<path class="st0" d="M2119.3,1433.5c-26.7,0-48.5-21.8-48.5-48.5s21.8-48.5,48.5-48.5c26.7,0,48.5,21.8,48.5,48.5
		S2146,1433.5,2119.3,1433.5z M2119.3,1345.3c-21.9,0-39.7,17.8-39.7,39.7s17.8,39.7,39.7,39.7s39.7-17.8,39.7-39.7
		S2141.2,1345.3,2119.3,1345.3z"/>
</g>
<g>
	<path class="st0" d="M2313.5,1433.5c-26.7,0-48.5-21.8-48.5-48.5s21.8-48.5,48.5-48.5c26.7,0,48.5,21.8,48.5,48.5
		S2340.3,1433.5,2313.5,1433.5z M2313.5,1345.3c-21.9,0-39.7,17.8-39.7,39.7s17.8,39.7,39.7,39.7s39.7-17.8,39.7-39.7
		S2335.4,1345.3,2313.5,1345.3z"/>
</g>
<g>
	<path class="st0" d="M2507.7,1433.5c-26.7,0-48.5-21.8-48.5-48.5s21.8-48.5,48.5-48.5c26.7,0,48.5,21.8,48.5,48.5
		S2534.5,1433.5,2507.7,1433.5z M2507.7,1345.3c-21.9,0-39.7,17.8-39.7,39.7s17.8,39.7,39.7,39.7s39.7-17.8,39.7-39.7
		S2529.6,1345.3,2507.7,1345.3z"/>
</g>
<g>
	<path class="st0" d="M2702,1433.5c-26.7,0-48.5-21.8-48.5-48.5s21.8-48.5,48.5-48.5c26.7,0,48.5,21.8,48.5,48.5
		S2728.7,1433.5,2702,1433.5z M2702,1345.3c-21.9,0-39.7,17.8-39.7,39.7s17.8,39.7,39.7,39.7c21.9,0,39.7-17.8,39.7-39.7
		S2723.8,1345.3,2702,1345.3z"/>
</g>
</svg>
