<?xml version="1.0" encoding="utf-8"?>
<!-- Generator: Adobe Illustrator 22.0.1, SVG Export Plug-In . SVG Version: 6.00 Build 0)  -->
<svg version="1.1" id="Layer_1" xmlns="http://www.w3.org/2000/svg" xmlns:xlink="http://www.w3.org/1999/xlink" x="0px" y="0px"
	 viewBox="0 0 500 100" style="enable-background:new 0 0 500 100;" xml:space="preserve">
<style type="text/css">
	.st0{fill:#FFCC00;}
	.st1{fill:#EFEFF4;}
	.st2{fill:none;stroke:#EFEFF4;stroke-miterlimit:10;}
</style>
<path class="st0" d="M13.8,10.8l-1.5,4.4h-1.9l4.8-14h2.2l4.8,14h-1.9l-1.5-4.4H13.8z M18.4,9.3l-1.4-4c-0.3-0.9-0.5-1.7-0.7-2.6h0
	c-0.2,0.8-0.4,1.7-0.7,2.5l-1.4,4.1H18.4z"/>
<path class="st1" d="M32.9,7.2C33.4,7.1,34.1,7,34.8,7c1,0,1.7,0.2,2.2,0.6c0.4,0.3,0.7,0.8,0.7,1.4c0,0.8-0.5,1.5-1.4,1.8v0
	c0.8,0.2,1.7,0.8,1.7,2c0,0.7-0.3,1.2-0.7,1.6c-0.6,0.5-1.5,0.8-2.8,0.8c-0.7,0-1.3,0-1.6-0.1V7.2z M33.9,10.5h0.9
	c1.1,0,1.8-0.6,1.8-1.4c0-0.9-0.7-1.3-1.8-1.3c-0.5,0-0.8,0-0.9,0.1V10.5z M33.9,14.4c0.2,0,0.5,0,0.9,0c1.1,0,2.1-0.4,2.1-1.6
	c0-1.1-0.9-1.6-2.1-1.6h-0.9V14.4z"/>
<path class="st1" d="M57.1,14.9c-0.4,0.2-1.2,0.4-2.1,0.4c-2.3,0-4-1.4-4-4.1c0-2.5,1.7-4.2,4.2-4.2c1,0,1.6,0.2,1.9,0.4l-0.3,0.9
	c-0.4-0.2-1-0.3-1.6-0.3C53.3,7.8,52,9,52,11.2c0,2,1.1,3.2,3.1,3.2c0.6,0,1.3-0.1,1.7-0.3L57.1,14.9z"/>
<path class="st1" d="M70.4,7.2C71,7.1,71.8,7,72.6,7c1.5,0,2.6,0.3,3.3,1c0.7,0.7,1.1,1.6,1.1,2.9c0,1.3-0.4,2.4-1.2,3.1
	c-0.8,0.8-2,1.2-3.6,1.2c-0.7,0-1.4,0-1.9-0.1V7.2z M71.4,14.3c0.3,0,0.6,0.1,1.1,0.1c2.2,0,3.4-1.2,3.4-3.4c0-1.9-1.1-3.1-3.3-3.1
	c-0.5,0-0.9,0-1.2,0.1V14.3z"/>
<path class="st0" d="M95.9,8.6h-5.4v5h6.1v1.5h-7.9v-14h7.6v1.5h-5.8v4.4h5.4V8.6z"/>
<path class="st1" d="M108.3,7.1h4.4V8h-3.3v2.7h3.1v0.9h-3.1v3.7h-1V7.1z"/>
<path class="st1" d="M132.3,14.8c-0.5,0.2-1.4,0.4-2.5,0.4c-1.2,0-2.2-0.3-3-1.1c-0.7-0.7-1.1-1.8-1.1-3c0-2.4,1.7-4.2,4.4-4.2
	c0.9,0,1.7,0.2,2,0.4l-0.3,0.9c-0.4-0.2-1-0.3-1.8-0.3c-2,0-3.2,1.2-3.2,3.2c0,2.1,1.2,3.3,3.1,3.3c0.7,0,1.2-0.1,1.4-0.2v-2.4h-1.6
	v-0.8h2.7V14.8z"/>
<path class="st1" d="M146.9,7.1v3.4h3.9V7.1h1.1v8.1h-1.1v-3.8h-3.9v3.8h-1V7.1H146.9z"/>
<path class="st0" d="M167.1,1.2v14h-1.8v-14H167.1z"/>
<path class="st1" d="M182.2,7.1h1v5.4c0,2.1-1.1,2.8-2.4,2.8c-0.4,0-0.9-0.1-1.1-0.2l0.2-0.9c0.2,0.1,0.5,0.2,0.9,0.2
	c0.9,0,1.5-0.4,1.5-2V7.1z"/>
<path class="st1" d="M197,7.1h1V11h0c0.2-0.3,0.4-0.6,0.6-0.9l2.5-3h1.3l-2.9,3.4l3.2,4.7h-1.2l-2.7-4l-0.8,0.9v3.1h-1V7.1z"/>
<path class="st1" d="M215.5,7.1h1v7.2h3.5v0.9h-4.5V7.1z"/>
<path class="st1" d="M240,11.6c-0.1-1.1-0.1-2.5-0.1-3.5h0c-0.3,0.9-0.6,2-1,3.1l-1.4,3.9h-0.8l-1.3-3.8c-0.4-1.1-0.7-2.2-0.9-3.1h0
	c0,1-0.1,2.4-0.2,3.6l-0.2,3.5h-1l0.6-8.1h1.3l1.4,3.9c0.3,1,0.6,1.9,0.8,2.7h0c0.2-0.8,0.5-1.7,0.9-2.7l1.4-3.9h1.3l0.5,8.1h-1
	L240,11.6z"/>
<path class="st0" d="M252.6,15.2v-14h2l4.5,7.1c1,1.6,1.8,3.1,2.5,4.5l0,0c-0.2-1.9-0.2-3.6-0.2-5.8V1.2h1.7v14h-1.8l-4.4-7.1
	c-1-1.6-1.9-3.2-2.6-4.7l-0.1,0c0.1,1.8,0.1,3.4,0.1,5.8v6H252.6z"/>
<path class="st0" d="M284.1,8.2c0,4.7-2.8,7.1-6.3,7.1c-3.6,0-6.1-2.8-6.1-6.9c0-4.3,2.7-7.1,6.3-7.1C281.7,1.3,284.1,4.1,284.1,8.2
	z M273.6,8.4c0,2.9,1.6,5.5,4.3,5.5c2.8,0,4.3-2.6,4.3-5.6c0-2.7-1.4-5.5-4.3-5.5C275,2.7,273.6,5.4,273.6,8.4z"/>
<path class="st1" d="M295,7.2c0.5-0.1,1.2-0.2,2-0.2c1,0,1.8,0.2,2.3,0.7c0.4,0.4,0.7,1,0.7,1.7c0,0.7-0.2,1.3-0.6,1.7
	c-0.6,0.6-1.5,0.9-2.5,0.9c-0.3,0-0.6,0-0.8-0.1v3.2h-1V7.2z M296,11.1c0.2,0.1,0.5,0.1,0.9,0.1c1.3,0,2-0.6,2-1.7
	c0-1.1-0.8-1.6-1.9-1.6c-0.5,0-0.8,0-1,0.1V11.1z"/>
<path class="st1" d="M320,16.4c-1.1-0.3-2.2-0.6-3.1-0.9c-0.2-0.1-0.3-0.1-0.5-0.1c-1.9-0.1-3.6-1.5-3.6-4.1c0-2.6,1.6-4.3,3.8-4.3
	c2.2,0,3.6,1.7,3.6,4.1c0,2.1-1,3.4-2.3,3.9v0c0.8,0.2,1.7,0.4,2.4,0.5L320,16.4z M319.2,11.1c0-1.6-0.8-3.3-2.6-3.3
	c-1.8,0-2.6,1.6-2.6,3.4c0,1.7,0.9,3.3,2.6,3.3C318.2,14.4,319.2,12.9,319.2,11.1z"/>
<path class="st1" d="M333.6,7.2c0.5-0.1,1.3-0.2,2-0.2c1.1,0,1.8,0.2,2.3,0.7c0.4,0.4,0.6,0.9,0.6,1.5c0,1.1-0.7,1.8-1.5,2.1v0
	c0.6,0.2,1,0.8,1.2,1.6c0.3,1.1,0.5,1.9,0.6,2.2h-1.1c-0.1-0.2-0.3-0.9-0.5-1.9c-0.2-1.1-0.7-1.5-1.6-1.6h-1v3.5h-1V7.2z
	 M334.7,10.9h1.1c1.1,0,1.8-0.6,1.8-1.5c0-1-0.8-1.5-1.9-1.5c-0.5,0-0.9,0-1,0.1V10.9z"/>
<path class="st0" d="M350.4,12.9c0.8,0.5,1.9,0.9,3.1,0.9c1.8,0,2.8-0.9,2.8-2.3c0-1.3-0.7-2-2.6-2.7c-2.2-0.8-3.6-1.9-3.6-3.8
	c0-2.1,1.8-3.7,4.4-3.7c1.4,0,2.4,0.3,3,0.7l-0.5,1.4c-0.4-0.2-1.3-0.6-2.6-0.6c-1.9,0-2.6,1.1-2.6,2c0,1.3,0.8,1.9,2.7,2.6
	c2.3,0.9,3.5,2,3.5,4c0,2.1-1.6,3.9-4.8,3.9c-1.3,0-2.7-0.4-3.5-0.9L350.4,12.9z"/>
<path class="st0" d="M371.1,2.7h-4.3V1.2h10.4v1.5H373v12.5h-1.8V2.7z"/>
<path class="st1" d="M389,7.1v4.8c0,1.8,0.8,2.6,1.9,2.6c1.2,0,2-0.8,2-2.6V7.1h1.1v4.7c0,2.5-1.3,3.5-3.1,3.5
	c-1.7,0-2.9-0.9-2.9-3.5V7.1H389z"/>
<path class="st1" d="M409.5,15.2l-2.6-8.1h1.1l1.3,4c0.3,1.1,0.6,2.1,0.9,3h0c0.2-0.9,0.6-2,0.9-3l1.4-4h1.1l-2.9,8.1H409.5z"/>
<path class="st1" d="M427.9,15.2l-2.1-8.1h1.1l1,4.1c0.2,1,0.5,2,0.6,2.8h0c0.1-0.8,0.4-1.8,0.7-2.8l1.1-4.1h1.1l1,4.1
	c0.2,1,0.4,1.9,0.6,2.8h0c0.2-0.9,0.4-1.8,0.6-2.8l1.1-4.1h1.1l-2.3,8.1h-1.1l-1-4.2c-0.3-1-0.4-1.8-0.5-2.6h0
	c-0.1,0.8-0.3,1.6-0.6,2.6l-1.2,4.2H427.9z"/>
<path class="st1" d="M453.2,15.2l-1-1.8c-0.4-0.7-0.7-1.1-0.9-1.6h0c-0.2,0.5-0.5,0.9-0.9,1.6l-1,1.8h-1.2l2.5-4.1l-2.4-4h1.2
	l1.1,1.9c0.3,0.5,0.5,0.9,0.7,1.4h0c0.2-0.5,0.4-0.9,0.7-1.4l1.1-1.9h1.2l-2.5,3.9l2.5,4.1H453.2z"/>
<path class="st1" d="M469.5,15.2v-3.4l-2.6-4.7h1.2l1.1,2.2c0.3,0.6,0.6,1.1,0.8,1.7h0c0.2-0.5,0.5-1.1,0.8-1.7l1.2-2.2h1.2
	l-2.7,4.6v3.4H469.5z"/>
<path class="st1" d="M485.6,14.6l4.5-6.6v0H486V7.1h5.5v0.6l-4.5,6.5v0h4.5v0.9h-5.9V14.6z"/>
<path class="st1" d="M13,26.2c0.6-0.1,1.4-0.2,2.2-0.2c1.5,0,2.6,0.3,3.3,1c0.7,0.7,1.1,1.6,1.1,2.9c0,1.3-0.4,2.4-1.2,3.1
	c-0.8,0.8-2,1.2-3.6,1.2c-0.7,0-1.4,0-1.9-0.1V26.2z M14.1,33.3c0.3,0,0.6,0.1,1.1,0.1c2.2,0,3.4-1.2,3.4-3.4c0-1.9-1.1-3.1-3.3-3.1
	c-0.5,0-0.9,0-1.2,0.1V33.3z"/>
<path class="st1" d="M37.4,34.2l-1-1.8c-0.4-0.7-0.7-1.1-0.9-1.6h0c-0.2,0.5-0.5,0.9-0.9,1.6l-1,1.8h-1.2l2.5-4.1l-2.4-4h1.2
	l1.1,1.9c0.3,0.5,0.5,0.9,0.7,1.4h0c0.2-0.5,0.4-0.9,0.7-1.4l1.1-1.9h1.2L36.1,30l2.5,4.1H37.4z"/>
<path class="st1" d="M51.8,32.9c0.5,0.3,1.2,0.5,1.9,0.5c1.1,0,1.7-0.6,1.7-1.4c0-0.8-0.4-1.2-1.5-1.6c-1.3-0.5-2.1-1.2-2.1-2.3
	c0-1.3,1-2.2,2.6-2.2c0.8,0,1.4,0.2,1.8,0.4l-0.3,0.9c-0.3-0.1-0.8-0.4-1.5-0.4c-1.1,0-1.5,0.7-1.5,1.2c0,0.8,0.5,1.1,1.6,1.6
	c1.4,0.5,2.1,1.2,2.1,2.4c0,1.2-0.9,2.3-2.8,2.3c-0.8,0-1.6-0.2-2.1-0.5L51.8,32.9z"/>
<path class="st1" d="M71.5,26.1h4.4V27h-3.3v2.7h3.1v0.9h-3.1v3.7h-1V26.1z"/>
<path class="st1" d="M89.7,33.6l4.5-6.6v0h-4.1v-0.9h5.5v0.6l-4.5,6.5v0h4.5v0.9h-5.9V33.6z"/>
<path class="st1" d="M112.3,30.4h-3.1v2.9h3.5v0.9h-4.5v-8.1h4.4V27h-3.3v2.6h3.1V30.4z"/>
<path class="st1" d="M127,26.1v3.4h3.9v-3.4h1.1v8.1h-1.1v-3.8H127v3.8h-1v-8.1H127z"/>
<path class="st1" d="M151.9,33.9c-0.4,0.2-1.2,0.4-2.1,0.4c-2.3,0-4-1.4-4-4.1c0-2.5,1.7-4.2,4.2-4.2c1,0,1.6,0.2,1.9,0.4l-0.3,0.9
	c-0.4-0.2-1-0.3-1.6-0.3c-1.9,0-3.2,1.2-3.2,3.3c0,2,1.1,3.2,3.1,3.2c0.6,0,1.3-0.1,1.7-0.3L151.9,33.9z"/>
<path class="st1" d="M165.5,34.2l-2.6-8.1h1.1l1.3,4c0.3,1.1,0.6,2.1,0.9,3h0c0.2-0.9,0.6-2,0.9-3l1.4-4h1.1l-2.9,8.1H165.5z"/>
<path class="st1" d="M182,26.1v8.1h-1v-8.1H182z"/>
<path class="st1" d="M199.3,27h-2.5v-0.9h6V27h-2.5v7.2h-1.1V27z"/>
<path class="st1" d="M215.2,26.2c0.5-0.1,1.2-0.2,2-0.2c1,0,1.8,0.2,2.3,0.7c0.4,0.4,0.7,1,0.7,1.7c0,0.7-0.2,1.3-0.6,1.7
	c-0.6,0.6-1.5,0.9-2.5,0.9c-0.3,0-0.6,0-0.8-0.1v3.2h-1V26.2z M216.3,30.1c0.2,0.1,0.5,0.1,0.9,0.1c1.3,0,2-0.6,2-1.7
	c0-1.1-0.8-1.6-1.9-1.6c-0.5,0-0.8,0-1,0.1V30.1z"/>
<path class="st1" d="M240.4,33.8c-0.5,0.2-1.4,0.4-2.5,0.4c-1.2,0-2.2-0.3-3-1.1c-0.7-0.7-1.1-1.8-1.1-3c0-2.4,1.7-4.2,4.4-4.2
	c0.9,0,1.7,0.2,2,0.4l-0.3,0.9c-0.4-0.2-1-0.3-1.8-0.3c-2,0-3.2,1.2-3.2,3.2c0,2.1,1.2,3.3,3.1,3.3c0.7,0,1.2-0.1,1.4-0.2v-2.4h-1.6
	v-0.8h2.7V33.8z"/>
<path class="st1" d="M256.4,31.6l-0.8,2.5h-1.1l2.7-8.1h1.3l2.8,8.1h-1.1l-0.9-2.5H256.4z M259,30.8l-0.8-2.3
	c-0.2-0.5-0.3-1-0.4-1.5h0c-0.1,0.5-0.3,1-0.4,1.5l-0.8,2.3H259z"/>
<path class="st1" d="M281.3,35.4c-1.1-0.3-2.2-0.6-3.1-0.9c-0.2-0.1-0.3-0.1-0.5-0.1c-1.9-0.1-3.6-1.5-3.6-4.1
	c0-2.6,1.6-4.3,3.8-4.3c2.2,0,3.6,1.7,3.6,4.1c0,2.1-1,3.4-2.3,3.9v0c0.8,0.2,1.7,0.4,2.4,0.5L281.3,35.4z M280.5,30.1
	c0-1.6-0.8-3.3-2.6-3.3c-1.8,0-2.6,1.6-2.6,3.4c0,1.7,0.9,3.3,2.6,3.3C279.5,33.4,280.5,31.9,280.5,30.1z"/>
<path class="st1" d="M295.2,26.1h1v7.2h3.5v0.9h-4.5V26.1z"/>
<path class="st1" d="M313.7,26.1h1V30h0c0.2-0.3,0.4-0.6,0.6-0.9l2.5-3h1.3l-2.9,3.4l3.2,4.7h-1.2l-2.7-4l-0.8,0.9v3.1h-1V26.1z"/>
<path class="st1" d="M337,26.1h1v5.4c0,2.1-1.1,2.8-2.4,2.8c-0.4,0-0.9-0.1-1.1-0.2l0.2-0.9c0.2,0.1,0.5,0.2,0.9,0.2
	c0.9,0,1.5-0.4,1.5-2V26.1z"/>
<path class="st1" d="M351.5,26.2c0.5-0.1,1.3-0.2,2-0.2c1.1,0,1.8,0.2,2.3,0.7c0.4,0.4,0.6,0.9,0.6,1.5c0,1.1-0.7,1.8-1.5,2.1v0
	c0.6,0.2,1,0.8,1.2,1.6c0.3,1.1,0.5,1.9,0.6,2.2h-1.1c-0.1-0.2-0.3-0.9-0.5-1.9c-0.2-1.1-0.7-1.5-1.6-1.6h-1v3.5h-1V26.2z
	 M352.5,29.9h1.1c1.1,0,1.8-0.6,1.8-1.5c0-1-0.8-1.5-1.9-1.5c-0.5,0-0.9,0-1,0.1V29.9z"/>
<path class="st1" d="M370.1,26.1v4.8c0,1.8,0.8,2.6,1.9,2.6c1.2,0,2-0.8,2-2.6v-4.8h1.1v4.7c0,2.5-1.3,3.5-3.1,3.5
	c-1.7,0-2.9-0.9-2.9-3.5v-4.8H370.1z"/>
<path class="st1" d="M394.6,30c0,2.8-1.7,4.3-3.8,4.3c-2.1,0-3.6-1.7-3.6-4.1c0-2.6,1.6-4.2,3.8-4.2C393.2,25.9,394.6,27.6,394.6,30
	z M388.3,30.2c0,1.7,0.9,3.3,2.6,3.3c1.7,0,2.6-1.5,2.6-3.4c0-1.6-0.8-3.3-2.6-3.3C389.2,26.8,388.3,28.4,388.3,30.2z"/>
<path class="st1" d="M407.3,34.2l-2.1-8.1h1.1l1,4.1c0.2,1,0.5,2,0.6,2.8h0c0.1-0.8,0.4-1.8,0.7-2.8l1.1-4.1h1.1l1,4.1
	c0.2,1,0.4,1.9,0.6,2.8h0c0.2-0.9,0.4-1.8,0.6-2.8l1.1-4.1h1.1l-2.3,8.1h-1.1l-1-4.2c-0.3-1-0.4-1.8-0.5-2.6h0
	c-0.1,0.8-0.3,1.6-0.6,2.6l-1.2,4.2H407.3z"/>
<path class="st1" d="M433.7,30.6c-0.1-1.1-0.1-2.5-0.1-3.5h0c-0.3,0.9-0.6,2-1,3.1l-1.4,3.9h-0.8l-1.3-3.8c-0.4-1.1-0.7-2.2-0.9-3.1
	h0c0,1-0.1,2.4-0.2,3.6l-0.2,3.5h-1l0.6-8.1h1.3L430,30c0.3,1,0.6,1.9,0.8,2.7h0c0.2-0.8,0.5-1.7,0.9-2.7l1.4-3.9h1.3l0.5,8.1h-1
	L433.7,30.6z"/>
<path class="st1" d="M450.7,34.2v-3.4l-2.6-4.7h1.2l1.1,2.2c0.3,0.6,0.6,1.1,0.8,1.7h0c0.2-0.5,0.5-1.1,0.8-1.7l1.2-2.2h1.2
	l-2.7,4.6v3.4H450.7z"/>
<path class="st1" d="M467.5,26.2c0.5-0.1,1.2-0.2,1.9-0.2c1,0,1.7,0.2,2.2,0.6c0.4,0.3,0.7,0.8,0.7,1.4c0,0.8-0.5,1.5-1.4,1.8v0
	c0.8,0.2,1.7,0.8,1.7,2c0,0.7-0.3,1.2-0.7,1.6c-0.6,0.5-1.5,0.8-2.8,0.8c-0.7,0-1.3,0-1.6-0.1V26.2z M468.6,29.5h0.9
	c1.1,0,1.8-0.6,1.8-1.4c0-0.9-0.7-1.3-1.8-1.3c-0.5,0-0.8,0-0.9,0.1V29.5z M468.6,33.4c0.2,0,0.5,0,0.9,0c1.1,0,2.1-0.4,2.1-1.6
	c0-1.1-0.9-1.6-2.1-1.6h-0.9V33.4z"/>
<path class="st1" d="M485.5,34.2v-8.1h1.1l2.6,4.1c0.6,0.9,1.1,1.8,1.5,2.6l0,0c-0.1-1.1-0.1-2.1-0.1-3.3v-3.4h1v8.1h-1.1l-2.6-4.1
	c-0.6-0.9-1.1-1.8-1.5-2.7l0,0c0.1,1,0.1,2,0.1,3.3v3.5H485.5z"/>
<path class="st1" d="M14.4,48.1c0.2,0,0.5,0,0.9,0c0.6-0.1,1.2-0.3,1.6-0.8c0.5-0.5,0.9-1.2,1-2.1h0c-0.4,0.5-1.1,0.8-1.8,0.8
	c-1.4,0-2.3-1.1-2.3-2.4c0-1.5,1.1-2.8,2.7-2.8s2.6,1.3,2.6,3.3c0,1.7-0.6,2.9-1.3,3.7c-0.6,0.6-1.4,0.9-2.3,1
	c-0.4,0.1-0.7,0.1-1,0.1V48.1z M14.7,43.6c0,1,0.6,1.7,1.5,1.7c0.7,0,1.3-0.3,1.5-0.8c0.1-0.1,0.1-0.2,0.1-0.4
	c0-1.3-0.5-2.4-1.6-2.4C15.4,41.7,14.7,42.5,14.7,43.6z"/>
<g>
	<path class="st1" d="M164.1,47.6c0.3,0.2,1,0.5,1.7,0.5c1.4,0,1.8-0.9,1.8-1.5c0-1.1-1-1.6-2-1.6h-0.6v-0.8h0.6
		c0.8,0,1.7-0.4,1.7-1.3c0-0.6-0.4-1.2-1.4-1.2c-0.6,0-1.2,0.3-1.6,0.5l-0.3-0.8c0.4-0.3,1.2-0.6,2-0.6c1.5,0,2.2,0.9,2.2,1.9
		c0,0.8-0.5,1.5-1.4,1.8v0c1,0.2,1.7,0.9,1.7,2c0,1.2-1,2.3-2.8,2.3c-0.9,0-1.6-0.3-2-0.5L164.1,47.6z"/>
</g>
<path class="st1" d="M260.1,41.9h-3l-0.3,2c0.2,0,0.3,0,0.6,0c0.6,0,1.2,0.1,1.7,0.4c0.6,0.3,1.1,1,1.1,2c0,1.5-1.2,2.7-2.9,2.7
	c-0.9,0-1.6-0.2-1.9-0.5l0.3-0.8c0.3,0.2,1,0.4,1.7,0.4c1,0,1.8-0.6,1.8-1.7c0-1-0.7-1.7-2.2-1.7c-0.4,0-0.8,0-1.1,0.1l0.5-3.7h3.7
	V41.9z"/>
<path class="st1" d="M280.6,44.8c0,2.7-1,4.1-2.7,4.1c-1.5,0-2.6-1.4-2.6-4c0-2.6,1.1-4.1,2.7-4.1C279.6,40.9,280.6,42.4,280.6,44.8
	z M276.3,45c0,2,0.6,3.2,1.6,3.2c1.1,0,1.6-1.3,1.6-3.3c0-1.9-0.5-3.2-1.6-3.2C277,41.7,276.3,42.8,276.3,45z"/>
<path class="st1" d="M354.9,48.8v-2.1h-3.6V46l3.5-5h1.1v4.8h1.1v0.8h-1.1v2.1H354.9z M354.9,45.9v-2.6c0-0.4,0-0.8,0-1.2h0
	c-0.2,0.5-0.4,0.8-0.6,1.2l-1.9,2.7v0H354.9z"/>
<path class="st1" d="M374,41.8c-0.2,0-0.5,0-0.8,0c-1.7,0.3-2.5,1.5-2.7,2.8h0c0.4-0.5,1-0.9,1.9-0.9c1.4,0,2.4,1,2.4,2.5
	c0,1.4-1,2.7-2.6,2.7c-1.7,0-2.8-1.3-2.8-3.3c0-1.5,0.6-2.7,1.3-3.5c0.6-0.6,1.5-1,2.5-1.2c0.3,0,0.6-0.1,0.8-0.1V41.8z M373.7,46.3
	c0-1.1-0.6-1.8-1.6-1.8c-0.6,0-1.2,0.4-1.5,1c-0.1,0.1-0.1,0.3-0.1,0.5c0,1.3,0.6,2.2,1.7,2.2C373.1,48.1,373.7,47.4,373.7,46.3z"/>
<g>
	<path class="st1" d="M95.2,43.3V44l-3.4,7.1h-1.1l3.4-6.9v0h-3.8v-0.9H95.2z"/>
	<path class="st1" d="M90.1,75.1v-0.6l0.8-0.8c2-1.9,2.9-2.9,2.9-4.1c0-0.8-0.4-1.5-1.5-1.5c-0.7,0-1.3,0.4-1.7,0.7L90.3,68
		c0.5-0.5,1.3-0.8,2.2-0.8c1.7,0,2.4,1.2,2.4,2.3c0,1.4-1,2.6-2.7,4.2l-0.6,0.6v0h3.5v0.9H90.1z"/>
	<path class="st1" d="M92.4,92.3L92.4,92.3L91,93l-0.2-0.8l1.7-0.9h0.9v7.8h-1V92.3z"/>
</g>
<line class="st2" x1="9" y1="21" x2="492" y2="21"/>
</svg>
